<svg width="996" height="1019" viewBox="0 0 996 1019" fill="none" xmlns="http://www.w3.org/2000/svg">
<g opacity="0.5">
<path d="M714.509 231.003L597.003 299.867" stroke="#B2B2B2"/>
<path d="M645.645 113.497L528.139 182.362" stroke="url(#paint0_linear_2312_295)"/>
<path d="M597.003 299.867L528.139 182.362" stroke="#B2B2B2"/>
<path d="M714.509 231.003L645.645 113.497" stroke="#B2B2B2"/>
<path d="M597.003 299.867L440.329 391.687" stroke="#B2B2B2"/>
<path d="M528.139 182.361L371.464 274.181" stroke="url(#paint1_linear_2312_295)"/>
<path d="M440.329 391.687L371.464 274.181" stroke="#B2B2B2"/>
<path d="M597.003 299.867L528.139 182.361" stroke="url(#paint2_linear_2312_295)"/>
<path d="M97.284 434.865L214.79 366" stroke="#B2B2B2"/>
<path d="M166.148 552.37L283.654 483.506" stroke="#B2B2B2"/>
<path d="M214.79 366L283.654 483.506" stroke="#B2B2B2"/>
<path d="M97.284 434.865L166.148 552.371" stroke="#B2B2B2"/>
<path d="M214.79 366L371.465 274.181" stroke="url(#paint3_linear_2312_295)"/>
<path d="M283.654 483.506L440.329 391.687" stroke="#B2B2B2"/>
<path d="M214.79 366L283.654 483.506" stroke="#B2B2B2"/>
<path d="M440.328 391.687L557.834 322.822" stroke="#B2B2B2"/>
<path d="M509.193 509.193L626.699 440.328" stroke="#B2B2B2"/>
<path d="M557.835 322.822L626.699 440.328" stroke="#B2B2B2"/>
<path d="M557.834 322.823L714.509 231.003" stroke="#B2B2B2"/>
<path d="M626.699 440.328L783.373 348.509" stroke="#B2B2B2"/>
<path d="M714.509 231.003L783.373 348.509" stroke="url(#paint4_linear_2312_295)"/>
<path d="M557.834 322.823L626.699 440.328" stroke="#B2B2B2"/>
<path d="M509.193 509.193L391.687 578.057" stroke="#B2B2B2"/>
<path d="M440.329 391.687L322.823 460.551" stroke="#B2B2B2"/>
<path d="M391.688 578.057L322.823 460.551" stroke="#B2B2B2"/>
<path d="M391.688 578.057L235.013 669.876" stroke="#B2B2B2"/>
<path d="M322.823 460.551L166.149 552.37" stroke="#B2B2B2"/>
<path d="M235.013 669.876L166.149 552.37" stroke="url(#paint5_linear_2312_295)"/>
<path d="M391.688 578.057L322.823 460.551" stroke="#B2B2B2"/>
<path d="M852.235 466.015L734.729 534.879" stroke="#B2B2B2"/>
<path d="M783.371 348.509L665.865 417.373" stroke="#B2B2B2"/>
<path d="M734.729 534.879L665.865 417.373" stroke="#B2B2B2"/>
<path d="M852.235 466.015L783.37 348.509" stroke="#B2B2B2"/>
<path d="M734.729 534.879L578.054 626.698" stroke="#B2B2B2"/>
<path d="M665.865 417.373L509.19 509.192" stroke="#B2B2B2"/>
<path d="M578.054 626.698L509.19 509.192" stroke="#B2B2B2"/>
<path d="M734.729 534.879L665.864 417.373" stroke="url(#paint6_linear_2312_295)"/>
<path d="M235.01 669.876L352.515 601.012" stroke="#B2B2B2"/>
<path d="M303.874 787.382L421.38 718.517" stroke="#B2B2B2"/>
<path d="M352.516 601.011L421.38 718.517" stroke="#B2B2B2"/>
<path d="M235.01 669.876L303.874 787.382" stroke="#B2B2B2"/>
<path d="M352.516 601.011L509.191 509.192" stroke="url(#paint7_linear_2312_295)"/>
<path d="M421.38 718.517L578.055 626.698" stroke="#B2B2B2"/>
<path d="M352.516 601.011L421.38 718.517" stroke="#B2B2B2"/>
<path d="M578.054 626.698L695.56 557.834" stroke="#B2B2B2"/>
<path d="M646.918 744.204L764.424 675.34" stroke="#B2B2B2"/>
<path d="M695.56 557.834L764.424 675.34" stroke="#B2B2B2"/>
<path d="M695.56 557.834L852.235 466.015" stroke="url(#paint8_linear_2312_295)"/>
<path d="M764.425 675.34L921.099 583.52" stroke="url(#paint9_linear_2312_295)"/>
<path d="M852.234 466.015L921.099 583.52" stroke="#B2B2B2"/>
<path d="M695.56 557.834L764.425 675.34" stroke="#B2B2B2"/>
<path d="M646.919 744.204L529.413 813.068" stroke="#B2B2B2"/>
<path d="M578.054 626.698L460.548 695.563" stroke="#B2B2B2"/>
<path d="M529.413 813.068L460.549 695.563" stroke="#B2B2B2"/>
<path d="M529.413 813.068L372.738 904.888" stroke="#B2B2B2"/>
<path d="M460.548 695.563L303.874 787.382" stroke="#B2B2B2"/>
<path d="M372.738 904.888L303.874 787.382" stroke="#B2B2B2"/>
<path d="M529.413 813.068L460.549 695.562" stroke="url(#paint10_linear_2312_295)"/>
</g>
<defs>
<linearGradient id="paint0_linear_2312_295" x1="621.653" y1="107.236" x2="562.831" y2="160.098" gradientUnits="userSpaceOnUse">
<stop stop-color="#13B0F5"/>
<stop offset="1" stop-color="#CA24B4"/>
</linearGradient>
<linearGradient id="paint1_linear_2312_295" x1="527.723" y1="183.954" x2="427.611" y2="316.567" gradientUnits="userSpaceOnUse">
<stop stop-color="#E70FAA"/>
<stop offset="1" stop-color="#13B0F5"/>
</linearGradient>
<linearGradient id="paint2_linear_2312_295" x1="603.265" y1="275.876" x2="550.403" y2="217.053" gradientUnits="userSpaceOnUse">
<stop stop-color="#13B0F5"/>
<stop offset="1" stop-color="#CA24B4"/>
</linearGradient>
<linearGradient id="paint3_linear_2312_295" x1="246.779" y1="374.349" x2="325.209" y2="303.866" gradientUnits="userSpaceOnUse">
<stop stop-color="#00C0FD"/>
<stop offset="0.421875" stop-color="#E70FAA"/>
<stop offset="1" stop-color="#00C0FD"/>
</linearGradient>
<linearGradient id="paint4_linear_2312_295" x1="708.247" y1="254.995" x2="761.109" y2="313.817" gradientUnits="userSpaceOnUse">
<stop stop-color="#13B0F5"/>
<stop offset="0.0001" stop-color="#505685"/>
<stop offset="0.317708" stop-color="#CA24B4"/>
<stop offset="1" stop-color="#13B0F5"/>
</linearGradient>
<linearGradient id="paint5_linear_2312_295" x1="235.013" y1="669.876" x2="134.429" y2="594.957" gradientUnits="userSpaceOnUse">
<stop stop-color="#8E34FF"/>
<stop offset="0.494792" stop-color="#CA24B4"/>
<stop offset="1" stop-color="#8E34FF"/>
</linearGradient>
<linearGradient id="paint6_linear_2312_295" x1="740.99" y1="510.887" x2="688.128" y2="452.065" gradientUnits="userSpaceOnUse">
<stop stop-color="#CA24B4"/>
<stop offset="0.234375" stop-color="#13B0F5"/>
</linearGradient>
<linearGradient id="paint7_linear_2312_295" x1="392.585" y1="577.866" x2="465.959" y2="479.806" gradientUnits="userSpaceOnUse">
<stop stop-color="#13B0F5"/>
<stop offset="0.75" stop-color="#CA24B4"/>
<stop offset="1" stop-color="#13B0F5"/>
</linearGradient>
<linearGradient id="paint8_linear_2312_295" x1="727.549" y1="566.183" x2="805.979" y2="495.7" gradientUnits="userSpaceOnUse">
<stop stop-color="#8643DC"/>
<stop offset="0.0001" stop-color="#8643DC"/>
<stop offset="0.317708" stop-color="#CA24B4"/>
<stop offset="1" stop-color="#8643DC"/>
</linearGradient>
<linearGradient id="paint9_linear_2312_295" x1="796.413" y1="683.689" x2="874.843" y2="613.206" gradientUnits="userSpaceOnUse">
<stop stop-color="#8643DC"/>
<stop offset="0.0001" stop-color="#8643DC"/>
<stop offset="0.317708" stop-color="#CA24B4"/>
<stop offset="1" stop-color="#8643DC"/>
</linearGradient>
<linearGradient id="paint10_linear_2312_295" x1="529.413" y1="813.068" x2="428.828" y2="738.149" gradientUnits="userSpaceOnUse">
<stop stop-color="#13B0F5"/>
<stop offset="0.0582928" stop-color="#CA24B4"/>
<stop offset="1" stop-color="#13B0F5"/>
</linearGradient>
</defs>
</svg>
